<?xml version="1.0" encoding="utf-8"?>
<!-- Generator: Adobe Illustrator 23.0.3, SVG Export Plug-In . SVG Version: 6.00 Build 0)  -->
<svg version="1.1" id="Layer_1" xmlns="http://www.w3.org/2000/svg" xmlns:xlink="http://www.w3.org/1999/xlink" x="0px" y="0px"
	 viewBox="0 0 249.2 68.1" style="enable-background:new 0 0 249.2 68.1;" xml:space="preserve">
<style type="text/css">
	.st0{fill:#FFFFFF;}
</style>
<g>
	<path class="st0" d="M30.1,48.4V19.5c0-6.8,4.7-10.2,14.1-10.2c3.6,0,6.8,0.8,9.6,2.4c2.8,1.6,4.1,4,4.1,7.4v29.7
		c0,6.5-4.6,9.8-13.7,9.8C34.8,58.6,30.1,55.2,30.1,48.4z M46,48.7V19.2c0-1.6-0.7-2.4-2-2.4c-1.4,0-2.1,0.8-2.1,2.4v29.5
		c0,1.6,0.7,2.4,2.1,2.4C45.3,51.2,46,50.4,46,48.7z"/>
	<path class="st0" d="M60.2,38.5H72v10.2c0,1.6,0.7,2.4,2,2.4s2-1.6,2-4.7c0-4.1-0.8-6.7-2.4-7.9c-6.2-3.2-9.9-5.5-11.2-6.8
		s-1.9-3.2-1.9-5.8v-6.5c0-6.8,4.6-10.2,13.8-10.2c8.9,0,13.4,3.3,13.4,9.8v9.5H76.1l0.2-5.8c0-4-0.7-6-2.2-6s-2.2,1.3-2.2,3.8
		c0,2.6,0.3,4.6,1,5.9c0.6,1.3,4.3,3.6,10.9,6.8c2.7,2,4.1,4.6,4.1,7.8v7.2c0,6.8-4.7,10.2-14,10.2c-9.1,0-13.7-3.3-13.7-9.8V38.5z"
		/>
	<path class="st0" d="M113.8,57.9h-7.5c-5.3,0-8.5-0.8-9.6-2.4c-1.1-1.6-1.6-4.7-1.6-9.3V16.8h-5.3V9.7h5.3V0h11.8v9.7h6.4v7.1h-6.4
		v29.3c0,1.4,0.4,2.4,1.3,2.8c0.8,0.5,2.7,0.7,5.5,0.7L113.8,57.9L113.8,57.9z"/>
	<path class="st0" d="M119.9,65l-2.4-2c1.9-1.9,2.9-3.6,3-5.2h-4.6v-8.7h10.8V55C126.7,58.7,124.4,62,119.9,65z"/>
	<path class="st0" d="M188.2,57.9h-11.8V19.4c0-1.5-0.7-2.2-2-2.2c-1.4,0-2.1,0.7-2.1,2.1v38.6h-11.8V19.3c0-1.5-0.7-2.2-2-2.2
		c-1.4,0-2.1,0.7-2.1,2.1v38.7h-11.8V9.7h11.8v1.7c1.6-1.4,4.1-2,7.3-2c2.7,0,5.2,1.1,7.5,3.3c2.1-2.2,4.9-3.3,8.5-3.3
		c2,0,4,0.6,5.8,1.8s2.7,2.9,2.7,5.1L188.2,57.9L188.2,57.9z"/>
	<path class="st0" d="M249.2,57.9h-11.8V19.2c0-1.5-0.7-2.2-2.1-2.2c-1.4,0-2.1,0.7-2.1,2.1v38.8h-11.8V9.7h11.8v1.6
		c1.6-1.3,4-2,7.3-2c2.1,0,4.1,0.6,5.9,1.7c1.8,1.2,2.7,2.9,2.7,5.1v41.8H249.2z"/>
	<path class="st0" d="M24.3,11.4c-2.3-1.4-4.8-2-7.5-2s-5,0.8-6.9,2.3l-1-2H0v58.4h11.8V56.8l0,0v-7.4l0,0c0-0.1,0-0.3,0-0.4V19
		c0-1.5,0.7-2.2,2.1-2.2s2,0.7,2,2.2v29.8c0,1.2-0.4,1.9-1.3,2.1V58c1.3,0.3,2.8,0.5,4.5,0.5c2.4,0,4.4-0.6,6.1-1.8s2.5-2.8,2.5-4.9
		V17.3C27.8,14.7,26.6,12.8,24.3,11.4z"/>
	<path class="st0" d="M205.6,9.4c-9.4,0-14.1,3.3-14.1,9.8v9.6h11.4c0-0.7-0.1-1.7-0.2-3.1c-0.1-1.4-0.1-2.4-0.1-3.1
		c0-3.8,0.8-5.8,2.3-5.8c1.4,0,2,0.8,2,2.4v7.1c0,0.8-1.4,1.9-4.1,3.3c-4.7,2.4-7.9,4.4-9.4,6c-1.6,1.6-2.3,3.5-2.3,5.6V51
		c0,5,3.2,7.6,9.7,7.6c2,0,3.7-0.2,4.9-0.6v-7c-0.2,0-0.4,0.1-0.7,0.1c-1.4,0-2.1-0.7-2.1-2.2v-8.8c0-1.7,1.3-2.9,3.9-3.6l0,0l0,0
		h0.1l0,0h1.3v19.6c0,0,0,0,0-0.1v1.9h10.5V19.5C218.8,12.8,214.4,9.4,205.6,9.4z"/>
</g>
</svg>
